<svg width="20" height="20" viewBox="0 0 20 20" fill="none" xmlns="http://www.w3.org/2000/svg">
<path d="M8.27637 1.05469C8.61465 0.986021 8.945 1.20469 9.01367 1.54297C9.08196 1.88093 8.86328 2.21051 8.52539 2.2793C4.96877 3.00125 2.29199 6.14678 2.29199 9.91602C2.29199 10.2478 2.31423 10.5746 2.35449 10.8955C2.35762 10.894 2.36112 10.8932 2.36426 10.8916C2.59127 10.7793 2.86216 10.6453 3.15625 10.5293C3.47732 10.4026 3.84009 10.5598 3.9668 10.8809C4.09343 11.2018 3.9361 11.5646 3.61523 11.6914C3.37431 11.7865 3.15858 11.8928 2.93359 12.0039C2.88117 12.0298 2.82837 12.0567 2.77441 12.083C2.72204 12.1086 2.66694 12.1218 2.6123 12.1318C3.56698 15.3559 6.55029 17.7079 10.084 17.708C12.1756 17.708 14.0737 16.8825 15.4736 15.541C15.3248 15.4563 15.2101 15.3133 15.1709 15.1328C15.0977 14.7956 15.3114 14.463 15.6484 14.3896C15.912 14.3325 16.1499 14.2426 16.3613 14.124C16.4655 14.0657 16.5792 14.0425 16.6904 14.0469C17.1769 13.2706 17.5323 12.4036 17.7207 11.4756C17.7894 11.1373 18.1197 10.9186 18.458 10.9873C18.796 11.0561 19.0148 11.3856 18.9463 11.7236C18.1084 15.8513 14.4594 18.958 10.084 18.958C5.09005 18.9579 1.04202 14.91 1.04199 9.91602C1.04199 5.54061 4.14869 1.89259 8.27637 1.05469ZM11.667 14.2002C11.8054 13.8841 12.1741 13.7397 12.4902 13.8779C12.9556 14.0818 13.3981 14.2301 13.8125 14.3262C14.1486 14.4042 14.3581 14.74 14.2803 15.0762C14.2023 15.4123 13.8664 15.6217 13.5303 15.5439C13.0323 15.4284 12.5165 15.2544 11.9893 15.0234C11.6732 14.885 11.5287 14.5163 11.667 14.2002ZM8.53418 12.0977C8.73252 11.8152 9.12277 11.747 9.40527 11.9453C9.57927 12.0675 9.75794 12.2002 9.92969 12.3281L9.94922 12.3438C10.1302 12.4785 10.3045 12.6078 10.4746 12.7266C10.7576 12.9241 10.8273 13.3137 10.6299 13.5967C10.4323 13.8797 10.0418 13.9486 9.75879 13.751C9.57066 13.6196 9.38186 13.4788 9.20312 13.3457L9.18848 13.3359C9.01178 13.2043 8.846 13.0797 8.68652 12.9678C8.40419 12.7694 8.33597 12.3801 8.53418 12.0977ZM5.44531 10.2119C5.98017 10.2714 6.5634 10.4225 7.20703 10.6934C7.52509 10.8272 7.67469 11.1936 7.54102 11.5117C7.40719 11.8298 7.04073 11.9793 6.72266 11.8457C6.1757 11.6155 5.70817 11.4997 5.30664 11.4551C4.96378 11.4168 4.71686 11.1076 4.75488 10.7646C4.79301 10.4216 5.10225 10.1738 5.44531 10.2119ZM14.167 1.04199C16.7532 1.04217 18.958 3.15666 18.958 5.75781C18.958 7.08902 18.3873 8.19803 17.6104 9.0957C16.8386 9.98739 15.8411 10.6988 14.9199 11.2568L14.9102 11.2617L14.9004 11.2676C14.6762 11.3928 14.4235 11.458 14.167 11.458C13.9103 11.458 13.657 11.393 13.4326 11.2676L13.4219 11.2617L13.4111 11.2549C12.4947 10.6933 11.4976 9.98443 10.7256 9.0957C9.94781 8.20015 9.37501 7.09331 9.375 5.75781C9.375 3.15655 11.5806 1.04199 14.167 1.04199ZM14.167 2.29199C12.2436 2.29199 10.625 3.87401 10.625 5.75781C10.625 6.70834 11.0259 7.53489 11.6689 8.27539C12.3144 9.01856 13.1799 9.6465 14.0498 10.1807C14.0851 10.1988 14.1258 10.208 14.167 10.208C14.2084 10.208 14.2487 10.1981 14.2842 10.1797C15.1535 9.6521 16.0198 9.02286 16.665 8.27734C17.3081 7.53433 17.708 6.70476 17.708 5.75781C17.708 3.87412 16.0903 2.29217 14.167 2.29199ZM14.167 3.95801C15.2022 3.95818 16.0417 4.79779 16.042 5.83301C16.042 6.86843 15.2024 7.70783 14.167 7.70801C13.1315 7.70801 12.292 6.86854 12.292 5.83301C12.2922 4.79768 13.1316 3.95801 14.167 3.95801ZM14.167 5.20801C13.822 5.20801 13.5422 5.48804 13.542 5.83301C13.542 6.17819 13.8218 6.45801 14.167 6.45801C14.512 6.45783 14.792 6.17808 14.792 5.83301C14.7917 5.48815 14.5119 5.20818 14.167 5.20801Z" fill="#F7842C"/>
</svg>
