<svg width="24" height="24" viewBox="0 0 24 24" fill="none" xmlns="http://www.w3.org/2000/svg">
<path d="M12.0006 1.25C16.4562 1.25021 20.0719 4.84199 20.0719 9.27734C20.072 10.3089 20.1421 11.0873 20.6178 11.7871C20.6839 11.883 20.7719 12.0035 20.8678 12.1348C21.0343 12.3626 21.2249 12.6242 21.3697 12.8506C21.6255 13.2503 21.8756 13.7323 21.9615 14.2939C22.2418 16.1267 20.9496 17.314 19.6627 17.8457C18.8261 18.1914 17.9302 18.4714 16.9977 18.6895C17.004 18.7936 16.9956 18.9005 16.9674 19.0068C16.3903 21.1783 14.3699 22.7499 12.0006 22.75C9.63118 22.75 7.61087 21.1783 7.03379 19.0068C7.00557 18.9005 6.99524 18.7936 7.00156 18.6895C6.06937 18.4714 5.17381 18.1913 4.3375 17.8457C3.05061 17.314 1.75836 16.1267 2.03867 14.2939C2.12462 13.7323 2.37471 13.2503 2.63047 12.8506C2.7754 12.6241 2.96686 12.3627 3.1334 12.1348C3.22923 12.0036 3.3163 11.883 3.38242 11.7871C3.85804 11.0873 3.92821 10.3088 3.92832 9.27734C3.92836 4.84189 7.54477 1.25 12.0006 1.25ZM14.8043 19.0771C12.9591 19.3049 11.0411 19.3059 9.1959 19.0781C9.70289 20.0581 10.7569 20.75 12.0006 20.75C13.2444 20.7499 14.2974 20.0573 14.8043 19.0771Z" fill="#6B6875"/>
</svg>
