<svg width="20" height="20" viewBox="0 0 20 20" fill="none" xmlns="http://www.w3.org/2000/svg">
<g clip-path="url(#clip0_445_17042)">
<path d="M18.1649 8.33208C18.5454 10.1995 18.2742 12.141 17.3965 13.8327C16.5188 15.5245 15.0877 16.8642 13.3418 17.6284C11.596 18.3927 9.64083 18.5354 7.8025 18.0326C5.96417 17.5298 4.35376 16.412 3.23983 14.8656C2.1259 13.3192 1.57579 11.4376 1.68122 9.53472C1.78666 7.6318 2.54127 5.82253 3.81923 4.40864C5.09718 2.99476 6.82122 2.06171 8.70384 1.76511C10.5865 1.46851 12.5139 1.82627 14.1646 2.77875" stroke="white" stroke-width="1.66642" stroke-linecap="round" stroke-linejoin="round"/>
<path d="M7.49878 9.16522L9.9984 11.6648L18.3305 3.33276" stroke="white" stroke-width="1.66642" stroke-linecap="round" stroke-linejoin="round"/>
</g>
<defs>
<clipPath id="clip0_445_17042">
<rect width="19.997" height="19.997" fill="white"/>
</clipPath>
</defs>
</svg>
